<?xml version="1.0" ?><!-- Uploaded to: SVG Repo, www.svgrepo.com, Generator: SVG Repo Mixer Tools -->
<svg width="800px" height="800px" viewBox="0 0 96 96" xmlns="http://www.w3.org/2000/svg"><title/><path d="M53.25,6.46a11.48,11.48,0,0,1-10.5,0C32.22,1.06,9.5-6.29,9.5,30.72,9.5,55.55,23,94,32.6,94S38.38,55.67,48,55.67,53.77,94,63.4,94,86.5,55.55,86.5,30.72C86.5-6.29,63.78,1.06,53.25,6.46Z" style="fill:#eaeaea"/><path d="M72.5,2.35c3.6,4.25,6,11.58,6,23.62,0,22.39-10.95,55.83-20.16,62.2C59.48,91.67,61,94,63.4,94,73,94,86.5,55.55,86.5,30.72,86.5,11.05,80.09,3.91,72.5,2.35Z" style="fill:#bacece"/><path d="M53.25,6.46a11.48,11.48,0,0,1-10.5,0C32.22,1.06,9.5-6.29,9.5,30.72,9.5,55.55,23,94,32.6,94S38.38,55.67,48,55.67,53.77,94,63.4,94,86.5,55.55,86.5,30.72C86.5-6.29,63.78,1.06,53.25,6.46Z" style="fill:none;stroke:#281a3b;stroke-linecap:round;stroke-linejoin:round;stroke-width:4px"/></svg>